<?xml version="1.0" encoding="utf-8"?>
<!-- Generator: Adobe Illustrator 26.0.1, SVG Export Plug-In . SVG Version: 6.00 Build 0)  -->
<svg version="1.1" id="Warstwa_1_xA0_Obraz_00000000945706301722502190000010804064928179932569_"
	 xmlns="http://www.w3.org/2000/svg" xmlns:xlink="http://www.w3.org/1999/xlink" x="0px" y="0px" viewBox="0 0 342 342"
	 style="enable-background:new 0 0 342 342;" xml:space="preserve">
<style type="text/css">
	.st0{fill:none;}
	.st1{font-family:'Raleway-Regular';}
	.st2{font-size:21px;}
	.st3{font-family:'Raleway-Bold';}
</style>
<g>
	<path d="M83.51,117.51c0.66,0.65,1.32,1.3,1.99,1.94c0.24,0.23,0.51,0.45,0.75,0.67c0.49-0.46,0.98-0.95,1.5-1.4
		c0.3-0.26,0.67-0.3,1.05-0.12c0.35,0.18,0.49,0.45,0.48,0.85c-0.01,4.69-0.01,9.38,0,14.07c0,0.3-0.11,0.51-0.3,0.73
		c-1.04,1.23-2.44,1.58-3.94,1.62c-1.28,0.04-2.56,0.06-3.83-0.01c-1.03-0.06-2.04-0.32-2.89-0.97c-0.31-0.23-0.57-0.53-0.81-0.83
		c-0.09-0.11-0.14-0.3-0.14-0.45c-0.01-4.77,0-9.53-0.01-14.3c0-0.4,0.23-0.61,0.56-0.75c0.39-0.16,0.74-0.06,1.03,0.2
		c0.47,0.43,0.93,0.87,1.49,1.39c0.84-0.88,1.68-1.77,2.53-2.65C83.16,117.51,83.34,117.51,83.51,117.51z M79.26,121.81
		c0,3.75,0,7.46,0.01,11.18c0,0.13,0.14,0.33,0.26,0.39c0.39,0.18,0.8,0.36,1.21,0.44c0.81,0.16,1.64,0.31,2.46,0.37
		c0.54,0.04,1.1-0.03,1.64-0.15c0.75-0.16,1.47-0.4,2.21-0.62c0.24-0.07,0.33-0.25,0.33-0.52c-0.01-3.61-0.01-7.23-0.01-10.84
		c0-0.08-0.02-0.15-0.03-0.23c-1.24,1.24-2.48,2.45-3.68,3.7c-0.31,0.33-0.43,0.28-0.71-0.01
		C81.76,124.27,80.53,123.06,79.26,121.81z M81.18,120.9c0.73,0.75,1.33,1.38,1.93,2.01c0.16,0.17,0.28,0.17,0.43-0.01
		c0.23-0.26,0.46-0.53,0.71-0.78c0.36-0.37,0.73-0.72,1.17-1.16c-0.75-0.68-1.46-1.33-2.04-1.86
		C82.67,119.69,81.94,120.28,81.18,120.9z"/>
	<path d="M38.82,155.89c0.05-0.36,0.1-0.72,0.15-1.08c0.06-0.49,0.12-0.98,0.17-1.47c0.64,0.15,1.28,0.29,1.92,0.44
		c-0.26,1.88-0.44,3.82-0.25,5.7c-0.7,0.1-1.35,0.19-1.99,0.29C38.82,158.47,38.82,157.18,38.82,155.89z"/>
	<path d="M102.64,169.35c0.06,0.33,0.13,0.58,0.14,0.83c0.02,0.8,0.04,1.59,0,2.39c-0.07,1.18-0.19,2.36-0.29,3.54
		c-0.04,0.51-0.1,1.01-0.14,1.44c-0.63-0.1-1.24-0.2-1.9-0.3c0.11-1.32,0.23-2.72,0.35-4.08c-0.95,0.37-1.86,0.8-2.82,1.07
		c-1.52,0.42-3.07,0.77-4.62,1.06c-1.27,0.23-2.56,0.33-3.85,0.47c-0.7,0.07-1.4,0.12-2.09,0.15c-0.77,0.04-1.53,0.05-2.3,0.08
		c-0.82,0.03-1.63,0.08-2.45,0.07c-1.23-0.02-2.46-0.07-3.69-0.15c-1.06-0.07-2.12-0.16-3.16-0.31c-1.41-0.2-2.82-0.41-4.21-0.73
		c-1.32-0.31-2.62-0.72-3.9-1.17c-0.91-0.32-1.77-0.79-2.48-1.47c-1.07-1.02-1.12-2.35-0.26-3.45c0.55-0.7,1.55-1.37,2.67-1.82
		c-0.33-0.17-0.63-0.31-0.92-0.46c-0.76-0.4-1.49-0.87-1.93-1.63c-0.21-0.36-0.33-0.8-0.38-1.22c-0.06-0.51-0.04-1.04-0.01-1.55
		c0.08-1.17,0.19-2.34,0.29-3.51c0.16-1.82,0.49-3.61,1.01-5.36c0.43-1.44,0.92-2.87,1.53-4.25c0.54-1.23,1.24-2.4,1.96-3.54
		c0.81-1.29,1.87-2.38,3.05-3.35c0.47-0.39,0.98-0.72,1.45-1.1c0.08-0.07,0.15-0.26,0.11-0.36c-0.54-1.43-1.08-2.86-1.65-4.28
		c-0.5-1.25-1.14-2.42-1.91-3.52c-0.54-0.77-1.16-1.48-1.96-2c-0.06-0.04-0.13-0.06-0.24-0.12c0,0.25-0.01,0.46,0,0.66
		c0.07,1.42-0.58,2.48-1.74,3.21c-1.67,1.06-3.8,0.88-5.28-0.48c-1.52-1.4-1.48-3.9-0.07-5.25c0.73-0.7,1.56-1.09,2.57-1.2
		c1.1-0.12,2.08,0.15,2.98,0.76c0.14,0.1,0.34,0.16,0.51,0.15c1.36-0.07,2.42,0.51,3.37,1.41c1.42,1.34,2.38,3,3.17,4.75
		c0.71,1.6,1.33,3.25,1.96,4.88c0.1,0.25,0.16,0.28,0.38,0.17c1.34-0.62,2.76-1.01,4.21-1.26c1.61-0.28,3.25-0.32,4.88-0.23
		c1.7,0.1,3.37,0.39,4.98,0.97c0.73,0.26,0.7,0.23,0.99-0.49c0.68-1.67,1.34-3.36,2.12-4.98c0.71-1.47,1.6-2.85,2.84-3.95
		c0.87-0.78,1.85-1.36,3.08-1.27c0.35,0.03,0.6-0.12,0.89-0.3c0.57-0.34,1.19-0.57,1.88-0.63c1.06-0.1,2.03,0.11,2.89,0.7
		c1.13,0.78,1.74,1.9,1.66,3.27c-0.11,1.88-1.47,3.19-3.26,3.55c-1.14,0.23-2.24,0.05-3.18-0.6c-1.38-0.97-1.9-2.04-1.7-3.92
		c-0.33,0.24-0.63,0.42-0.88,0.64c-0.93,0.83-1.6,1.87-2.2,2.95c-1.03,1.85-1.8,3.82-2.49,5.82c-0.08,0.22-0.08,0.34,0.16,0.48
		c1.15,0.65,2.17,1.49,3.14,2.38c0.37,0.34,0.69,0.73,1.02,1.11c0.12,0.13,0.22,0.27,0.3,0.37c0.5-0.66,0.95-1.33,1.49-1.93
		c1.24-1.39,2.68-2.54,4.39-3.32c1.28-0.59,2.6-1.02,4.01-1.16c0.96-0.1,1.92-0.23,2.87-0.21c1.87,0.04,3.71,0.27,5.51,0.83
		c1.89,0.59,3.62,1.48,5.18,2.68c1.29,1,2.4,2.18,3.35,3.52c1.14,1.6,2.01,3.33,2.6,5.19c0.38,1.21,0.61,2.47,0.88,3.71
		c0.41,1.92,0.36,3.88,0.28,5.82c-0.05,1.3-0.31,2.59-0.51,3.87c-0.36,2.36-1.11,4.61-2.01,6.81c-1.13,2.78-2.59,5.38-4.33,7.81
		c-0.97,1.35-2.04,2.64-3.13,3.9c-0.89,1.04-1.83,2.04-2.83,2.98c-1.17,1.09-2.38,2.14-3.64,3.11c-2.04,1.56-4.13,3.04-6.2,4.56
		c-0.34,0.25-0.67,0.5-1.08,0.8c0.11-0.39,0.19-0.7,0.28-0.99c0.18-0.55,0.42-1.09,0.54-1.65c0.08-0.37,0.29-0.57,0.56-0.77
		c1.61-1.18,3.22-2.36,4.81-3.56c1.92-1.45,3.67-3.09,5.29-4.86c1.31-1.43,2.51-2.96,3.69-4.51c1.33-1.75,2.42-3.66,3.38-5.63
		c1.11-2.28,1.99-4.66,2.54-7.14c0.3-1.36,0.45-2.77,0.62-4.16c0.1-0.83,0.17-1.68,0.15-2.51c-0.06-2.14-0.32-4.26-0.93-6.32
		c-0.61-2.05-1.52-3.95-2.81-5.65c-1.2-1.59-2.67-2.9-4.41-3.89c-1.63-0.93-3.38-1.54-5.24-1.75c-1.19-0.13-2.4-0.26-3.59-0.21
		c-1.89,0.08-3.75,0.44-5.42,1.42c-0.83,0.49-1.61,1.08-2.36,1.68c-1.06,0.85-1.84,1.94-2.51,3.12c-0.06,0.11-0.07,0.31,0,0.42
		c1.45,2.42,2.45,5.02,3.08,7.76c0.3,1.31,0.55,2.64,0.75,3.97c0.14,0.94,0.19,1.89,0.24,2.84c0.05,0.9,0.08,1.81,0.07,2.72
		c0,0.81-0.41,1.42-1.01,1.94c-1.03,0.89-2.29,1.33-3.52,1.8c-1.58,0.6-3.23,0.92-4.9,1.15c-1.22,0.17-2.44,0.34-3.66,0.45
		c-1.36,0.12-2.73,0.18-4.09,0.23c-1.13,0.05-2.27,0.08-3.4,0.07c-1.13-0.01-2.26-0.07-3.38-0.15c-1.03-0.07-2.07-0.15-3.09-0.31
		c-1.59-0.24-3.17-0.57-4.76-0.82c-0.3-0.05-0.64,0.07-0.95,0.15c-1.05,0.29-2.06,0.7-2.98,1.3c-0.23,0.15-0.43,0.36-0.59,0.58
		c-0.18,0.25-0.1,0.54,0.13,0.7c0.53,0.38,1.07,0.77,1.65,1.05c1.45,0.69,3.01,1.04,4.57,1.36c0.87,0.18,1.76,0.28,2.65,0.4
		c1.09,0.14,2.17,0.26,3.26,0.38c0.41,0.04,0.82,0.07,1.24,0.08c1.85,0.03,3.71,0.09,5.56,0.07c1.29-0.01,2.58-0.1,3.86-0.23
		c1.52-0.15,3.04-0.34,4.54-0.61c1.9-0.34,3.79-0.76,5.52-1.65C100.56,171.01,101.66,170.35,102.64,169.35z M83.61,140.23
		c-0.66,0.04-1.33,0.05-1.99,0.12c-0.63,0.06-1.26,0.13-1.88,0.26c-1.53,0.32-2.98,0.88-4.34,1.66c-1.68,0.97-3.08,2.23-4.23,3.78
		c-1.07,1.44-1.92,3-2.58,4.67c-0.57,1.42-1.06,2.88-1.32,4.39c-0.3,1.72-0.59,3.45-0.8,5.18c-0.12,0.97-0.04,1.96-0.1,2.94
		c-0.04,0.56,0.23,0.88,0.65,1.17c1.26,0.87,2.7,1.28,4.15,1.65c2.14,0.55,4.33,0.85,6.53,1.06c1.38,0.13,2.78,0.22,4.16,0.22
		c2.03,0,4.05-0.06,6.08-0.15c1.11-0.05,2.22-0.15,3.31-0.3c1.37-0.19,2.74-0.42,4.1-0.68c1.48-0.29,2.93-0.72,4.27-1.44
		c0.75-0.41,1.53-0.84,1.21-1.93c0-0.01,0-0.03,0-0.04c-0.08-1.24-0.1-2.48-0.24-3.71c-0.15-1.33-0.32-2.66-0.62-3.96
		c-0.54-2.39-1.3-4.71-2.5-6.87c-0.72-1.29-1.54-2.49-2.57-3.55c-0.59-0.61-1.24-1.17-1.91-1.68c-1.52-1.15-3.22-1.95-5.08-2.36
		C86.49,140.36,85.05,140.19,83.61,140.23z M63.98,133.29c0.47,0.03,0.91-0.11,1.31-0.38c1.01-0.68,1.14-2,0.14-2.82
		c-0.85-0.7-2.16-0.65-3.01,0.05c-0.4,0.33-0.66,1.08-0.56,1.57C62.04,132.67,62.95,133.33,63.98,133.29z M102.29,133.34
		c0.3-0.07,0.62-0.09,0.89-0.22c1.19-0.56,1.62-1.77,0.8-2.77c-0.75-0.9-2.04-1.06-3.03-0.39c-0.94,0.63-1.11,1.7-0.48,2.53
		C100.9,133.07,101.54,133.32,102.29,133.34z"/>
	<path d="M83.6,215.71c-0.79-0.87-1.53-1.66-2.24-2.47c-0.66-0.76-1.32-1.53-1.94-2.32c-0.8-1.02-1.6-2.03-2.32-3.1
		c-1.19-1.76-2.34-3.56-3.47-5.36c-0.42-0.66-0.75-1.37-1.15-2.04c-0.13-0.23-0.31-0.45-0.53-0.6c-2.12-1.49-4.25-2.96-6.33-4.4
		c0.36-0.54,0.72-1.08,1.09-1.65c1.18,0.82,2.41,1.69,3.64,2.55c-3-6.61-5.01-13.48-5.72-20.74c0.5,0.29,0.96,0.65,1.48,0.83
		c0.51,0.18,0.66,0.49,0.73,0.98c0.15,1.15,0.29,2.32,0.54,3.45c0.41,1.89,0.82,3.79,1.38,5.65c0.64,2.1,1.41,4.16,2.19,6.22
		c0.43,1.13,0.96,2.23,1.5,3.31c0.93,1.83,1.84,3.69,2.89,5.45c1.21,2.03,2.54,3.99,3.89,5.92c0.96,1.37,2.03,2.67,3.06,3.98
		c0.39,0.5,0.84,0.95,1.3,1.47c0.64-0.74,1.26-1.45,1.85-2.13c0.47,0.42,0.95,0.85,1.49,1.33C85.87,213.21,84.77,214.42,83.6,215.71
		z"/>
	<path d="M45.69,177.97c0.55-0.38,1.07-0.74,1.55-1.07c1.38,1.66,2.78,3.36,4.18,5.05c-0.38,0.42-0.81,0.89-1.28,1.4
		C48.53,181.68,47.03,179.86,45.69,177.97z"/>
	<path d="M54.95,187.76c0.48-0.52,0.9-0.98,1.33-1.45c1.7,1.24,3.46,2.52,5.16,3.76c-0.4,0.5-0.79,0.98-1.23,1.53
		C58.48,190.35,56.68,189.03,54.95,187.76z"/>
	<path d="M41.8,165.75c0.71,1.85,1.43,3.75,2.15,5.63c-0.5,0.27-1.08,0.57-1.66,0.88c-0.91-1.89-1.72-3.9-2.28-5.96
		C40.64,166.11,41.23,165.93,41.8,165.75z"/>
	<path d="M43.07,147.8c-0.62-0.29-1.19-0.55-1.79-0.83c0.94-1.75,2.14-3.4,3.61-4.76c0.4,0.53,0.78,1.04,1.2,1.59
		C44.87,144.95,43.86,146.32,43.07,147.8z"/>
	<path d="M56.6,137.84c-0.1,0.63-0.2,1.23-0.3,1.83c0.03,0.02,0.07,0.03,0.1,0.05c-0.15,0.03-0.31,0.09-0.46,0.09
		c-1.45,0-2.86,0.3-4.25,0.71c-0.23,0.07-0.29,0.08-0.37-0.19c-0.16-0.52-0.42-1.01-0.66-1.54
		C52.56,138.15,54.56,137.81,56.6,137.84z"/>
	<path d="M63.12,139c1.02,0.45,2.02,1.01,2.92,1.74c0.53,0.44,1.02,0.92,1.54,1.38c0.15,0.14,0.19,0.24,0.05,0.44
		c-0.35,0.48-0.66,0.98-0.99,1.49c-1.11-1.35-2.45-2.4-3.97-3.1C62.81,140.29,62.96,139.66,63.12,139z"/>
	<path d="M101.35,183.26c-0.45,1.64-0.92,3.34-1.38,5.03c-0.64-0.21-1.25-0.41-1.86-0.6c0.44-1.6,0.89-3.24,1.33-4.83
		C100.05,182.98,100.66,183.11,101.35,183.26z"/>
	<path d="M91.45,202.22c0.55,0.33,1.08,0.66,1.67,1.01c-0.87,1.34-1.77,2.75-2.65,4.11c-0.58-0.37-1.12-0.71-1.67-1.06
		C89.66,204.97,90.57,203.58,91.45,202.22z"/>
	<path d="M96.16,192.96c0.53,0.24,1.07,0.49,1.68,0.77c-0.01,0.03,0,0.16-0.06,0.28c-0.63,1.4-1.27,2.79-1.9,4.14
		c-0.57-0.29-1.13-0.58-1.71-0.87C94.82,195.88,95.5,194.4,96.16,192.96z"/>
</g>
<rect x="135.83" y="166.29" class="st0" width="231.33" height="49.73"/>
<text transform="matrix(1 0 0 1 135.8255 181.6221)"><tspan x="0" y="0" class="st1 st2">MOJE </tspan><tspan x="62.43" y="0" class="st3 st2">PSZCZOŁY</tspan><tspan x="0" y="21" class="st3 st2">MAREK</tspan><tspan x="72.91" y="21" class="st1 st2"> KULAWIK</tspan></text>
</svg>
